<mxfile host="app.diagrams.net" modified="2024-04-12T13:28:39.766Z" agent="Mozilla/5.0 (Windows NT 10.0; Win64; x64) AppleWebKit/537.36 (KHTML, like Gecko) Chrome/122.0.6261.2121 YaBrowser/24.4.0.2121 (beta) Yowser/2.5 Safari/537.36" version="23.1.5" etag="LGHf1X6GdvirCKiBtmHs" type="github">
  <diagram name="Страница — 1" id="WrPLT9Xlj93uQQX1-Cbd">
    <mxGraphModel>
      <root>
        <mxCell id="0" />
        <mxCell id="1" parent="0" />
      </root>
    </mxGraphModel>
  </diagram>
</mxfile>
